<?xml version="1.0" encoding="utf-8"?>
<!-- Generator: Adobe Illustrator 16.0.0, SVG Export Plug-In . SVG Version: 6.00 Build 0)  -->
<!DOCTYPE svg PUBLIC "-//W3C//DTD SVG 1.1//EN" "http://www.w3.org/Graphics/SVG/1.1/DTD/svg11.dtd">
<svg version="1.1" id="Layer_1" xmlns="http://www.w3.org/2000/svg" xmlns:xlink="http://www.w3.org/1999/xlink" x="0px" y="0px"
	 width="100px" height="30px" viewBox="0 0 100 30" enable-background="new 0 0 100 30" xml:space="preserve">
<g>
	
		<rect x="18.306" y="3.307" transform="matrix(0.7071 -0.7071 0.7071 0.7071 0.3914 20.269)" fill="#FFFFFF" width="12.712" height="12.711"/>
	
		<rect x="39.654" y="3.305" transform="matrix(0.7071 -0.7071 0.7071 0.7071 6.6437 35.3623)" fill="#FFFFFF" width="12.712" height="12.711"/>
	
		<rect x="28.982" y="13.983" transform="matrix(0.7071 -0.7071 0.7071 0.7071 -4.032 30.9434)" fill="#FFFFFF" width="12.712" height="12.712"/>
	
		<rect x="7.633" y="13.981" transform="matrix(0.7071 -0.7071 0.7071 0.7071 -10.2831 15.8491)" fill="#FFFFFF" width="12.712" height="12.712"/>
	<g>
		<path fill="#FFFFFF" d="M57.55,20.978h3.108v-7.601H57.55v-3.023h9.827v3.023H64.27v7.601h3.107v3.023H57.55V20.978z"/>
		<path fill="#FFFFFF" d="M69.982,10.354h3.842c3.906,0,6.656,1.932,6.656,6.761s-2.75,6.887-6.445,6.887h-4.053V10.354z
			 M73.636,21.104c1.743,0,3.149-0.798,3.149-3.989s-1.406-3.863-3.149-3.863h-0.042v7.853H73.636z"/>
		<path fill="#FFFFFF" d="M82.624,10.354h3.653l2.289,6.089l1.112,3.065h0.084c-0.168-1.47-0.504-3.527-0.504-5.207v-3.947h3.443
			v13.647h-3.653l-2.289-6.11l-1.112-3.044h-0.084c0.168,1.554,0.504,3.527,0.504,5.207v3.947h-3.443V10.354z"/>
	</g>
</g>
</svg>
