<?xml version="1.0" encoding="utf-8"?>
<!-- Generator: Adobe Illustrator 16.0.0, SVG Export Plug-In . SVG Version: 6.00 Build 0)  -->
<!DOCTYPE svg PUBLIC "-//W3C//DTD SVG 1.1//EN" "http://www.w3.org/Graphics/SVG/1.1/DTD/svg11.dtd">
<svg version="1.1" id="Layer_1" xmlns="http://www.w3.org/2000/svg" xmlns:xlink="http://www.w3.org/1999/xlink" x="0px" y="0px"
	 width="300.002px" height="300px" viewBox="0 0 300.002 300" enable-background="new 0 0 300.002 300" xml:space="preserve">
<g id="artboard2_x2B_3">
	<g display="none">
		<g display="inline">
			<path fill="none" stroke="#FFFFFF" stroke-width="8" stroke-linejoin="bevel" d="M83.256,20.115C103.26,9.814,125.951,4,150,4
				c80.634,0,146,65.366,146,146s-65.366,146-146,146C69.367,296,4,230.634,4,150c0-48.846,23.987-92.089,60.824-118.593"/>
			<g>
				<circle fill="#FFFFFF" cx="83.256" cy="20.115" r="10.527"/>
			</g>
		</g>
	</g>
	<g>
		<path fill="none" stroke="#FFFFFF" stroke-width="6" stroke-linejoin="bevel" stroke-miterlimit="10" d="M90,164l30,52H90H60
			L90,164z M120,216h30h30l-30-52L120,216z M180,216h30h30l-30-52L180,216z M210,164h-30h-30l30,52L210,164z M150,164h-30H90l30,52
			L150,164z M90,164h30h30l-30-52L90,164z M150,164h30h30l-30-52L150,164z M180,112h-30h-30l30,52L180,112z M120,112h30h30l-30-52
			L120,112z"/>
		<g>
			<g>
				<polygon fill="none" stroke="#FFFFFF" stroke-width="2" stroke-linejoin="bevel" stroke-miterlimit="10" points="150,112 
					120,112 135,216 150,216 80.192,179.563 105.577,136.594 150,111.234 195.499,136.242 219.808,179.652 150,216 165,216 180,112 
									"/>
			</g>
		</g>
		<path fill="none" stroke="#FFFFFF" stroke-width="6" stroke-linejoin="bevel" stroke-miterlimit="10" d="M246,222l20.784,12
			 M54,222l-20.784,12 M150.002,54V14"/>
		<path fill="#303840" stroke="#FFFFFF" stroke-width="6" stroke-miterlimit="10" d="M186.002,118h-12v-12h12V118z M126.002,106h-12
			v12h12V106z M216.002,158h-12v12h12V158z M156.002,158h-12v12h12V158z M96.002,158h-12v12h12V158z M246.002,210h-12v12h12V210z
			 M186.002,210h-12v12h12V210z M126.002,210h-12v12h12V210z M66.002,210h-12v12h12V210z M156.002,54h-12v12h12V54z"/>
	</g>
	<g>
		<g>
			<path fill="#FFFFFF" d="M79.035,240h7.196v11.993h-7.196V240z"/>
			<path fill="#FFFFFF" d="M88.659,240h7.196v11.993h-7.196V240z"/>
			<path fill="#FFFFFF" d="M98.283,240h7.196v11.993h-7.196V240z"/>
			<path fill="#FFFFFF" d="M107.906,240h7.196v11.993h-7.196V240z"/>
			<path fill="#FFFFFF" d="M117.53,240h7.196v11.993h-7.196V240z"/>
			<path fill="#FFFFFF" d="M127.154,240h7.196v11.993h-7.196V240L127.154,240z"/>
			<path fill="#FFFFFF" d="M136.778,240h7.196v11.993h-7.196V240z"/>
			<path fill="#FFFFFF" d="M146.402,240h7.197v11.993h-7.197V240z"/>
			<path fill="#FFFFFF" d="M156.026,240h7.195v11.993h-7.195V240z"/>
			<path fill="#FFFFFF" d="M165.649,240h7.195v11.993h-7.195V240z"/>
			<path fill="#FFFFFF" d="M175.272,240h7.196v11.993h-7.196V240z"/>
			<path fill="#FFFFFF" d="M184.897,240h7.195v11.993h-7.195V240z"/>
			<path fill="#FFFFFF" d="M194.521,240h7.196v11.993h-7.196V240z"/>
			<path fill="#FFFFFF" d="M204.146,240h7.196v11.993h-7.196V240z"/>
			<path fill="#FFFFFF" d="M213.769,240h7.196v11.993h-7.196V240z"/>
		</g>
		<g>
			<path fill="#FFFFFF" d="M99.423,258h7.196v11.993h-7.196V258z"/>
			<path fill="#FFFFFF" d="M109.047,258h7.196v11.993h-7.196V258z"/>
			<path fill="#FFFFFF" d="M118.671,258h7.196v11.993h-7.196V258z"/>
			<path fill="#FFFFFF" d="M128.294,258h7.196v11.993h-7.196V258z"/>
			<path fill="#FFFFFF" d="M164.51,258h7.196v11.993h-7.196V258z"/>
			<path fill="#FFFFFF" d="M174.134,258h7.196v11.993h-7.196V258z"/>
			<path fill="#FFFFFF" d="M183.758,258h7.196v11.993h-7.196V258z"/>
			<path fill="#FFFFFF" d="M193.381,258h7.196v11.993h-7.196V258z"/>
		</g>
	</g>
</g>
</svg>
