<?xml version="1.0" encoding="utf-8"?>
<!-- Generator: Adobe Illustrator 16.0.0, SVG Export Plug-In . SVG Version: 6.00 Build 0)  -->
<!DOCTYPE svg PUBLIC "-//W3C//DTD SVG 1.1//EN" "http://www.w3.org/Graphics/SVG/1.1/DTD/svg11.dtd">
<svg version="1.1" id="Layer_1" xmlns="http://www.w3.org/2000/svg" xmlns:xlink="http://www.w3.org/1999/xlink" x="0px" y="0px"
	 width="900px" height="150px" viewBox="0 0 900 150" enable-background="new 0 0 900 150" xml:space="preserve">
<g>
	<defs>
		<path id="SVGID_1_" d="M64.819,13.024h320c0,0-166.301,78.181-320,96c159.805-9.087,320-79,320-79l16-17h16v96h-352V13.024z"/>
	</defs>
	<clipPath id="SVGID_2_">
		<use xlink:href="#SVGID_1_"  overflow="visible"/>
	</clipPath>
	<g clip-path="url(#SVGID_2_)">
		<polyline fill="none" stroke="#231F20" stroke-width="16" stroke-linecap="square" stroke-miterlimit="10" points="
			264.819,21.024 184.819,21.024 152.819,21.024 72.819,21.024 72.819,61.024 152.819,61.024 152.819,101.024 72.819,101.024 		"/>
		<polyline fill="none" stroke="#231F20" stroke-width="16" stroke-linecap="square" stroke-miterlimit="10" points="
			408.819,45.024 408.819,101.024 376.819,101.024 296.819,101.024 296.819,21.024 376.819,21.024 376.819,61.024 296.819,61.024 
			264.819,61.024 184.819,61.024 184.819,101.024 		"/>
	</g>
</g>
<path fill-rule="evenodd" clip-rule="evenodd" fill="#231F20" d="M393.15,0.072c-0.298,2.483-0.738,4.955-0.919,7.458
	c-0.596,7.437,0.154,15.938,7.355,20.028c4.028,2.271,9.073,2.364,13.567,1.663c-5.678,0.9-11.274-3.772-14.055-8.294
	c-0.954-1.556-1.52-3.278-1.772-5.059c-0.244-1.709-0.318-3.547-1.468-4.938c6.626,8.081,16.833,19.868,28.378,13.354
	c-3.094,1.766-7.381-3.125-8.615-5.496c-1.643-3.132-1.729-7.165-4.653-9.525c-2.543-2.08-5.949-2.434-9.052-3.236
	C399.227,5.287,392.691,4.006,393.15,0.072L393.15,0.072z"/>
<line fill="none" stroke="#B3B3B3" stroke-miterlimit="10" x1="65.667" y1="109.5" x2="65.667" y2="149.5"/>
<line fill="none" stroke="#B3B3B3" stroke-miterlimit="10" x1="416.667" y1="109.5" x2="416.667" y2="149.5"/>
<g>
	<g>
		<line fill="none" stroke="#B3B3B3" stroke-miterlimit="10" x1="68.167" y1="139" x2="413.167" y2="139"/>
		<g>
			<polygon fill="#B3B3B3" points="72.055,142.5 68.663,139 72.055,135.5 69.176,135.5 65.786,139 69.176,142.5 			"/>
		</g>
		<g>
			<polygon fill="#B3B3B3" points="409.516,142.5 412.909,139 409.516,135.5 412.395,135.5 415.786,139 412.395,142.5 			"/>
		</g>
	</g>
</g>
<g>
	<path fill="#808080" d="M199.927,131.006c0.453,0.203,0.799,0.481,1.037,0.835s0.357,0.722,0.357,1.104
		c0,0.59-0.239,1.11-0.718,1.562s-1.077,0.677-1.796,0.677c-0.422,0-0.859-0.09-1.313-0.27s-0.77-0.363-0.949-0.551
		c-0.059-0.063-0.088-0.129-0.088-0.199c0-0.063,0.022-0.117,0.067-0.164s0.099-0.07,0.161-0.07s0.133,0.029,0.211,0.088
		c0.605,0.449,1.246,0.674,1.922,0.674c0.57,0,1.048-0.179,1.433-0.536s0.577-0.755,0.577-1.192c0-0.293-0.095-0.58-0.284-0.861
		s-0.462-0.503-0.817-0.665s-0.715-0.243-1.078-0.243c-0.117,0-0.201-0.022-0.252-0.067s-0.076-0.104-0.076-0.179
		c0-0.07,0.024-0.129,0.073-0.176s0.122-0.07,0.22-0.07l0.422,0.006c0.441,0,0.806-0.135,1.093-0.404s0.431-0.582,0.431-0.938
		c0-0.367-0.15-0.691-0.451-0.973s-0.693-0.422-1.178-0.422c-0.34,0-0.652,0.059-0.938,0.176s-0.514,0.277-0.686,0.48
		c-0.063,0.078-0.11,0.126-0.144,0.144s-0.071,0.026-0.114,0.026c-0.066,0-0.123-0.022-0.17-0.067s-0.07-0.099-0.07-0.161
		c0-0.156,0.17-0.354,0.51-0.592c0.473-0.332,1.01-0.498,1.611-0.498c0.621,0,1.131,0.187,1.529,0.56s0.598,0.817,0.598,1.333
		c0,0.328-0.096,0.639-0.287,0.932S200.298,130.83,199.927,131.006z"/>
	<path fill="#808080" d="M204.761,128.152v2.408c0.289-0.121,0.566-0.212,0.832-0.272s0.518-0.091,0.756-0.091
		c0.617,0,1.134,0.217,1.55,0.65s0.624,1.004,0.624,1.711c0,0.781-0.234,1.414-0.703,1.898s-1.055,0.727-1.758,0.727
		c-0.465,0-0.912-0.104-1.342-0.311c-0.305-0.145-0.582-0.324-0.832-0.539c-0.148-0.129-0.223-0.236-0.223-0.322
		c0-0.07,0.023-0.13,0.07-0.179s0.102-0.073,0.164-0.073c0.066,0,0.137,0.035,0.211,0.105c0.59,0.551,1.232,0.826,1.928,0.826
		c0.574,0,1.049-0.196,1.424-0.589s0.563-0.915,0.563-1.567c0-0.555-0.162-1.001-0.486-1.339s-0.736-0.507-1.236-0.507
		c-0.512,0-1.023,0.135-1.535,0.404c-0.125,0.063-0.213,0.094-0.264,0.094c-0.07,0-0.127-0.023-0.17-0.07s-0.064-0.113-0.064-0.199
		v-3.264h3.434c0.117,0,0.201,0.023,0.252,0.07s0.076,0.107,0.076,0.182c0,0.07-0.025,0.129-0.076,0.176s-0.135,0.07-0.252,0.07
		H204.761z"/>
	<path fill="#808080" d="M211.201,134.516h3.779v-0.193c0-0.117,0.023-0.201,0.07-0.252s0.107-0.076,0.182-0.076
		c0.07,0,0.129,0.025,0.176,0.076s0.07,0.135,0.07,0.252v0.686h-4.758v-0.727c1-0.898,1.973-1.813,2.918-2.742
		c0.441-0.434,0.744-0.752,0.908-0.955s0.276-0.382,0.337-0.536s0.091-0.31,0.091-0.466c0-0.422-0.17-0.795-0.51-1.119
		s-0.75-0.486-1.23-0.486c-0.43,0-0.811,0.123-1.143,0.369s-0.547,0.551-0.645,0.914c-0.023,0.094-0.053,0.154-0.088,0.182
		c-0.047,0.039-0.102,0.059-0.164,0.059c-0.066,0-0.122-0.022-0.167-0.067s-0.067-0.099-0.067-0.161
		c0-0.188,0.103-0.441,0.308-0.762s0.488-0.572,0.85-0.756s0.731-0.275,1.11-0.275c0.613,0,1.141,0.213,1.582,0.639
		s0.662,0.908,0.662,1.447c0,0.227-0.037,0.435-0.111,0.624s-0.2,0.396-0.378,0.621s-0.497,0.563-0.958,1.017
		c-1.156,1.141-2.098,2.025-2.824,2.654V134.516z"/>
	<path fill="#808080" d="M218.666,129.934v0.896c0.293-0.355,0.607-0.623,0.943-0.803s0.732-0.27,1.189-0.27
		c0.484,0,0.932,0.113,1.342,0.34s0.728,0.542,0.952,0.946s0.337,0.829,0.337,1.274c0,0.707-0.253,1.312-0.759,1.813
		s-1.128,0.753-1.866,0.753c-0.879,0-1.592-0.357-2.139-1.072v2.965h1.195c0.117,0,0.201,0.022,0.252,0.067s0.076,0.104,0.076,0.179
		c0,0.07-0.025,0.129-0.076,0.176s-0.135,0.07-0.252,0.07h-2.35c-0.117,0-0.201-0.022-0.252-0.067s-0.076-0.104-0.076-0.179
		s0.025-0.134,0.076-0.179s0.135-0.067,0.252-0.067h0.662v-6.346h-0.662c-0.117,0-0.201-0.023-0.252-0.07s-0.076-0.107-0.076-0.182
		c0-0.07,0.025-0.129,0.076-0.176s0.135-0.07,0.252-0.07H218.666z M222.931,132.318c0-0.566-0.206-1.052-0.618-1.456
		s-0.915-0.606-1.509-0.606c-0.598,0-1.104,0.203-1.518,0.609s-0.621,0.891-0.621,1.453c0,0.566,0.207,1.053,0.621,1.459
		s0.92,0.609,1.518,0.609c0.59,0,1.092-0.202,1.506-0.606S222.931,132.889,222.931,132.318z"/>
	<path fill="#808080" d="M228.058,132.354l2.256,2.162c0.148,0,0.242,0.007,0.281,0.021s0.073,0.042,0.103,0.085
		s0.044,0.09,0.044,0.141c0,0.07-0.025,0.129-0.076,0.176s-0.137,0.07-0.258,0.07h-1.582c-0.121,0-0.207-0.023-0.258-0.07
		s-0.076-0.105-0.076-0.176c0-0.074,0.025-0.134,0.076-0.179s0.137-0.067,0.258-0.067h0.814l-1.916-1.834l-1.904,1.834h0.82
		c0.117,0,0.201,0.022,0.252,0.067s0.076,0.104,0.076,0.179c0,0.07-0.025,0.129-0.076,0.176s-0.135,0.07-0.252,0.07h-1.6
		c-0.117,0-0.201-0.023-0.252-0.07s-0.076-0.105-0.076-0.176c0-0.051,0.015-0.098,0.044-0.141s0.063-0.071,0.1-0.085
		s0.13-0.021,0.278-0.021l2.256-2.162l-2.004-1.922c-0.141,0-0.229-0.008-0.267-0.023s-0.07-0.045-0.1-0.088
		s-0.044-0.09-0.044-0.141c0-0.07,0.025-0.129,0.076-0.176s0.137-0.07,0.258-0.07h1.342c0.121,0,0.206,0.023,0.255,0.07
		s0.073,0.107,0.073,0.182c0,0.07-0.024,0.129-0.073,0.176s-0.134,0.07-0.255,0.07h-0.586l1.658,1.6l1.67-1.6h-0.586
		c-0.117,0-0.202-0.023-0.255-0.07s-0.079-0.107-0.079-0.182c0-0.07,0.025-0.129,0.076-0.176s0.137-0.07,0.258-0.07h1.342
		c0.117,0,0.201,0.023,0.252,0.07s0.076,0.107,0.076,0.182c0,0.047-0.015,0.092-0.044,0.135s-0.063,0.072-0.1,0.088
		s-0.126,0.023-0.267,0.023L228.058,132.354z"/>
</g>
<line fill="none" stroke="#B3B3B3" stroke-miterlimit="10" x1="65.167" y1="14" x2="25.167" y2="14"/>
<line fill="none" stroke="#B3B3B3" stroke-miterlimit="10" x1="65.167" y1="109" x2="25.167" y2="109"/>
<g>
	<g>
		<line fill="none" stroke="#B3B3B3" stroke-miterlimit="10" x1="34.667" y1="16.5" x2="34.667" y2="105.5"/>
		<g>
			<polygon fill="#B3B3B3" points="31.167,20.444 34.667,17.052 38.167,20.444 38.167,17.565 34.667,14.175 31.167,17.565 			"/>
		</g>
		<g>
			<polygon fill="#B3B3B3" points="31.167,101.905 34.667,105.298 38.167,101.905 38.167,104.784 34.667,108.175 31.167,104.784 			
				"/>
		</g>
	</g>
</g>
<g>
	<path fill="#808080" d="M8.325,62.182c-0.254,0.449-0.556,0.787-0.905,1.014s-0.708,0.34-1.075,0.34
		c-0.34,0-0.669-0.098-0.987-0.293s-0.571-0.481-0.759-0.858s-0.281-0.772-0.281-1.187c0-0.602,0.187-1.149,0.56-1.644
		s0.872-0.741,1.497-0.741c0.445,0,0.852,0.139,1.219,0.416s0.652,0.68,0.855,1.207c0.262,0.676,0.393,1.461,0.393,2.355
		c0,0.695-0.111,1.273-0.334,1.734c-0.148,0.313-0.366,0.615-0.653,0.908s-0.61,0.531-0.97,0.715
		c-0.492,0.246-1.004,0.369-1.535,0.369c-0.352,0-0.639-0.066-0.861-0.199c-0.102-0.063-0.152-0.141-0.152-0.234
		c0-0.066,0.023-0.122,0.07-0.167s0.104-0.067,0.17-0.067c0.047,0,0.115,0.021,0.205,0.064c0.152,0.074,0.328,0.111,0.527,0.111
		c0.832,0,1.547-0.3,2.145-0.899s0.896-1.351,0.896-2.253C8.349,62.709,8.341,62.479,8.325,62.182z M8.231,61.361
		c-0.207-0.793-0.464-1.333-0.771-1.62s-0.665-0.431-1.075-0.431c-0.418,0-0.785,0.176-1.102,0.527S4.81,60.641,4.81,61.191
		c0,0.535,0.158,0.978,0.475,1.327s0.674,0.524,1.072,0.524c0.23,0,0.458-0.063,0.683-0.188s0.437-0.313,0.636-0.563
		C7.804,62.125,7.989,61.814,8.231,61.361z"/>
	<path fill="#808080" d="M12.04,63.23c0.305-0.449,0.618-0.781,0.94-0.996s0.681-0.322,1.075-0.322c0.523,0,0.988,0.218,1.395,0.653
		s0.609,0.974,0.609,1.614c0,0.586-0.186,1.122-0.557,1.608s-0.883,0.729-1.535,0.729c-0.426,0-0.823-0.131-1.192-0.393
		s-0.659-0.664-0.87-1.207c-0.262-0.676-0.393-1.424-0.393-2.244c0-0.617,0.123-1.191,0.369-1.723
		c0.188-0.41,0.438-0.771,0.75-1.081s0.677-0.564,1.093-0.762s0.866-0.296,1.351-0.296c0.328,0,0.602,0.066,0.82,0.199
		c0.094,0.059,0.141,0.137,0.141,0.234c0,0.07-0.021,0.128-0.064,0.173s-0.098,0.067-0.164,0.067c-0.051,0-0.111-0.02-0.182-0.059
		c-0.16-0.078-0.359-0.117-0.598-0.117c-0.762,0-1.456,0.327-2.083,0.981s-0.94,1.433-0.94,2.335
		C12.005,62.756,12.017,62.957,12.04,63.23z M12.151,64.045c0.148,0.711,0.382,1.219,0.7,1.523s0.694,0.457,1.128,0.457
		c0.438,0,0.812-0.171,1.122-0.513s0.466-0.786,0.466-1.333c0-0.512-0.156-0.936-0.469-1.271s-0.666-0.504-1.061-0.504
		c-0.379,0-0.744,0.162-1.096,0.486C12.708,63.105,12.444,63.49,12.151,64.045z"/>
	<path fill="#808080" d="M18.854,61.268v0.896c0.293-0.355,0.607-0.623,0.943-0.803s0.732-0.27,1.189-0.27
		c0.484,0,0.932,0.113,1.342,0.34s0.728,0.542,0.952,0.946s0.337,0.829,0.337,1.274c0,0.707-0.253,1.312-0.759,1.813
		s-1.128,0.753-1.866,0.753c-0.879,0-1.592-0.357-2.139-1.072v2.965h1.195c0.117,0,0.201,0.022,0.252,0.067s0.076,0.104,0.076,0.179
		c0,0.07-0.025,0.129-0.076,0.176s-0.135,0.07-0.252,0.07H17.7c-0.117,0-0.201-0.022-0.252-0.067s-0.076-0.104-0.076-0.179
		s0.025-0.134,0.076-0.179s0.135-0.067,0.252-0.067h0.662v-6.346H17.7c-0.117,0-0.201-0.023-0.252-0.07s-0.076-0.107-0.076-0.182
		c0-0.07,0.025-0.129,0.076-0.176s0.135-0.07,0.252-0.07H18.854z M23.12,63.652c0-0.566-0.206-1.052-0.618-1.456
		s-0.915-0.606-1.509-0.606c-0.598,0-1.104,0.203-1.518,0.609s-0.621,0.891-0.621,1.453c0,0.566,0.207,1.053,0.621,1.459
		s0.92,0.609,1.518,0.609c0.59,0,1.092-0.202,1.506-0.606S23.12,64.223,23.12,63.652z"/>
	<path fill="#808080" d="M28.247,63.688l2.256,2.162c0.148,0,0.242,0.007,0.281,0.021s0.073,0.042,0.103,0.085
		s0.044,0.09,0.044,0.141c0,0.07-0.025,0.129-0.076,0.176s-0.137,0.07-0.258,0.07h-1.582c-0.121,0-0.207-0.023-0.258-0.07
		s-0.076-0.105-0.076-0.176c0-0.074,0.025-0.134,0.076-0.179s0.137-0.067,0.258-0.067h0.814l-1.916-1.834l-1.904,1.834h0.82
		c0.117,0,0.201,0.022,0.252,0.067s0.076,0.104,0.076,0.179c0,0.07-0.025,0.129-0.076,0.176s-0.135,0.07-0.252,0.07h-1.6
		c-0.117,0-0.201-0.023-0.252-0.07s-0.076-0.105-0.076-0.176c0-0.051,0.015-0.098,0.044-0.141s0.063-0.071,0.1-0.085
		s0.13-0.021,0.278-0.021l2.256-2.162l-2.004-1.922c-0.141,0-0.229-0.008-0.267-0.023s-0.07-0.045-0.1-0.088
		s-0.044-0.09-0.044-0.141c0-0.07,0.025-0.129,0.076-0.176s0.137-0.07,0.258-0.07h1.342c0.121,0,0.206,0.023,0.255,0.07
		s0.073,0.107,0.073,0.182c0,0.07-0.024,0.129-0.073,0.176s-0.134,0.07-0.255,0.07h-0.586l1.658,1.6l1.67-1.6h-0.586
		c-0.117,0-0.202-0.023-0.255-0.07s-0.079-0.107-0.079-0.182c0-0.07,0.025-0.129,0.076-0.176s0.137-0.07,0.258-0.07h1.342
		c0.117,0,0.201,0.023,0.252,0.07s0.076,0.107,0.076,0.182c0,0.047-0.015,0.092-0.044,0.135s-0.063,0.072-0.1,0.088
		s-0.126,0.023-0.267,0.023L28.247,63.688z"/>
</g>
<line fill="none" stroke="#CCCCCC" stroke-miterlimit="10" x1="176.667" y1="109.5" x2="176.667" y2="119.5"/>
<line fill="none" stroke="#CCCCCC" stroke-miterlimit="10" x1="192.667" y1="109.5" x2="192.667" y2="119.5"/>
<g>
	<path fill="#808080" d="M179.78,118.889v4.641h1.125c0.078,0,0.134,0.015,0.168,0.045s0.051,0.07,0.051,0.119
		c0,0.047-0.017,0.086-0.051,0.117s-0.09,0.047-0.168,0.047h-2.578c-0.078,0-0.134-0.016-0.168-0.047s-0.051-0.07-0.051-0.117
		c0-0.049,0.017-0.089,0.051-0.119s0.09-0.045,0.168-0.045h1.125v-4.188l-1.07,0.336c-0.052,0.016-0.09,0.023-0.113,0.023
		c-0.039,0-0.075-0.016-0.107-0.049s-0.049-0.071-0.049-0.115c0-0.039,0.013-0.076,0.039-0.109c0.021-0.021,0.063-0.043,0.129-0.066
		L179.78,118.889z"/>
	<path fill="#808080" d="M183.44,121.783c0.203-0.299,0.412-0.521,0.627-0.664s0.454-0.215,0.717-0.215
		c0.349,0,0.659,0.145,0.93,0.436s0.406,0.649,0.406,1.076c0,0.391-0.124,0.748-0.371,1.072s-0.589,0.486-1.023,0.486
		c-0.284,0-0.549-0.087-0.795-0.262s-0.439-0.443-0.58-0.805c-0.175-0.451-0.262-0.949-0.262-1.496c0-0.412,0.082-0.794,0.246-1.148
		c0.125-0.273,0.292-0.514,0.5-0.721s0.451-0.376,0.729-0.508s0.577-0.197,0.9-0.197c0.219,0,0.401,0.044,0.547,0.133
		c0.063,0.039,0.094,0.091,0.094,0.156c0,0.047-0.015,0.085-0.043,0.115s-0.065,0.045-0.109,0.045c-0.034,0-0.074-0.013-0.121-0.039
		c-0.106-0.052-0.239-0.078-0.398-0.078c-0.508,0-0.971,0.218-1.389,0.654s-0.627,0.955-0.627,1.557
		C183.417,121.467,183.424,121.601,183.44,121.783z M183.514,122.326c0.099,0.474,0.255,0.813,0.467,1.016s0.463,0.305,0.752,0.305
		c0.292,0,0.541-0.114,0.748-0.342s0.311-0.524,0.311-0.889c0-0.341-0.104-0.624-0.313-0.848s-0.444-0.336-0.707-0.336
		c-0.253,0-0.496,0.108-0.73,0.324C183.885,121.7,183.709,121.957,183.514,122.326z"/>
	<path fill="#808080" d="M187.983,120.475v0.598c0.195-0.237,0.405-0.416,0.629-0.535s0.488-0.18,0.793-0.18
		c0.323,0,0.621,0.076,0.895,0.227s0.485,0.361,0.635,0.631s0.225,0.553,0.225,0.85c0,0.471-0.169,0.875-0.506,1.209
		s-0.752,0.502-1.244,0.502c-0.586,0-1.062-0.238-1.426-0.715v1.977h0.797c0.078,0,0.134,0.015,0.168,0.045s0.051,0.07,0.051,0.119
		c0,0.047-0.017,0.086-0.051,0.117s-0.09,0.047-0.168,0.047h-1.566c-0.078,0-0.134-0.015-0.168-0.045s-0.051-0.07-0.051-0.119
		s0.017-0.089,0.051-0.119s0.09-0.045,0.168-0.045h0.441v-4.23h-0.441c-0.078,0-0.134-0.016-0.168-0.047s-0.051-0.072-0.051-0.121
		c0-0.047,0.017-0.086,0.051-0.117s0.09-0.047,0.168-0.047H187.983z M190.827,122.064c0-0.377-0.138-0.701-0.412-0.971
		s-0.61-0.404-1.006-0.404c-0.398,0-0.735,0.135-1.012,0.406s-0.414,0.594-0.414,0.969c0,0.377,0.138,0.702,0.414,0.973
		s0.613,0.406,1.012,0.406c0.394,0,0.728-0.135,1.004-0.404S190.827,122.445,190.827,122.064z"/>
	<path fill="#808080" d="M194.245,122.088l1.504,1.441c0.099,0,0.161,0.004,0.188,0.014s0.049,0.028,0.068,0.057
		s0.029,0.06,0.029,0.094c0,0.047-0.017,0.086-0.051,0.117s-0.091,0.047-0.172,0.047h-1.055c-0.081,0-0.138-0.016-0.172-0.047
		s-0.051-0.07-0.051-0.117c0-0.049,0.017-0.089,0.051-0.119s0.091-0.045,0.172-0.045h0.543l-1.277-1.223l-1.27,1.223h0.547
		c0.078,0,0.134,0.015,0.168,0.045s0.051,0.07,0.051,0.119c0,0.047-0.017,0.086-0.051,0.117s-0.09,0.047-0.168,0.047h-1.066
		c-0.078,0-0.134-0.016-0.168-0.047s-0.051-0.07-0.051-0.117c0-0.034,0.01-0.065,0.029-0.094s0.042-0.047,0.066-0.057
		s0.087-0.014,0.186-0.014l1.504-1.441l-1.336-1.281c-0.094,0-0.153-0.005-0.178-0.016s-0.047-0.03-0.066-0.059
		s-0.029-0.06-0.029-0.094c0-0.047,0.017-0.086,0.051-0.117s0.091-0.047,0.172-0.047h0.895c0.081,0,0.138,0.016,0.17,0.047
		s0.049,0.072,0.049,0.121c0,0.047-0.017,0.086-0.049,0.117s-0.089,0.047-0.17,0.047h-0.391l1.105,1.066l1.113-1.066h-0.391
		c-0.078,0-0.135-0.016-0.17-0.047s-0.053-0.072-0.053-0.121c0-0.047,0.017-0.086,0.051-0.117s0.091-0.047,0.172-0.047h0.895
		c0.078,0,0.134,0.016,0.168,0.047s0.051,0.072,0.051,0.121c0,0.031-0.01,0.061-0.029,0.09s-0.042,0.048-0.066,0.059
		s-0.084,0.016-0.178,0.016L194.245,122.088z"/>
</g>
<g>
	<g>
		<line fill="none" stroke="#CCCCCC" stroke-miterlimit="10" x1="178.167" y1="115" x2="191.167" y2="115"/>
		<g>
			<polygon fill="#CCCCCC" points="180.401,116.5 178.733,114.5 180.401,112.5 178.986,112.5 177.319,114.5 178.986,116.5 			"/>
		</g>
		<g>
			<polygon fill="#CCCCCC" points="188.737,116.5 190.405,114.5 188.737,112.5 190.152,112.5 191.819,114.5 190.152,116.5 			"/>
		</g>
	</g>
</g>
<line fill="none" stroke="#CCCCCC" stroke-miterlimit="10" x1="160.667" y1="109.5" x2="160.667" y2="119.5"/>
<g>
	<g>
		<line fill="none" stroke="#CCCCCC" stroke-miterlimit="10" x1="67.167" y1="115" x2="159.167" y2="115"/>
		<g>
			<polygon fill="#CCCCCC" points="68.954,116.5 67.257,114.5 68.954,112.5 67.514,112.5 65.819,114.5 67.514,116.5 			"/>
		</g>
		<g>
			<polygon fill="#CCCCCC" points="157.184,116.5 158.88,114.5 157.184,112.5 158.624,112.5 160.319,114.5 158.624,116.5 			"/>
		</g>
	</g>
</g>
<g>
	<path fill="#808080" d="M104.91,120.845c0.342,0.166,0.6,0.385,0.774,0.657s0.261,0.564,0.261,0.876
		c0,0.485-0.182,0.905-0.547,1.26s-0.807,0.532-1.328,0.532s-0.963-0.177-1.328-0.532s-0.547-0.775-0.547-1.26
		c0-0.309,0.087-0.6,0.261-0.872s0.434-0.492,0.779-0.662c-0.299-0.172-0.518-0.352-0.654-0.537
		c-0.189-0.264-0.283-0.555-0.283-0.874c0-0.449,0.173-0.842,0.52-1.179s0.764-0.505,1.252-0.505c0.492,0,0.91,0.168,1.255,0.505
		s0.518,0.73,0.518,1.179c0,0.319-0.094,0.609-0.283,0.869C105.426,120.492,105.209,120.673,104.91,120.845z M105.535,122.388
		c0-0.361-0.14-0.675-0.42-0.942s-0.628-0.4-1.045-0.4s-0.765,0.133-1.045,0.4s-0.42,0.58-0.42,0.938
		c0,0.371,0.141,0.693,0.422,0.967s0.629,0.41,1.042,0.41s0.761-0.137,1.042-0.41S105.535,122.756,105.535,122.388z
		 M105.422,119.449c0-0.352-0.131-0.653-0.393-0.906s-0.583-0.378-0.964-0.378c-0.377,0-0.697,0.127-0.959,0.381
		s-0.393,0.553-0.393,0.898c0,0.319,0.129,0.598,0.388,0.837s0.58,0.359,0.964,0.359c0.387,0,0.71-0.12,0.969-0.359
		S105.422,119.765,105.422,119.449z"/>
	<path fill="#808080" d="M111.951,120.455v1.016c0,0.882-0.21,1.581-0.63,2.095c-0.329,0.404-0.744,0.605-1.245,0.605
		c-0.241,0-0.468-0.048-0.681-0.144s-0.395-0.23-0.544-0.403c-0.094-0.107-0.198-0.28-0.31-0.518s-0.193-0.456-0.242-0.654
		c-0.075-0.28-0.112-0.607-0.112-0.981v-1.016c0-0.885,0.21-1.585,0.63-2.1c0.329-0.404,0.744-0.605,1.245-0.605
		c0.244,0,0.472,0.048,0.684,0.144s0.392,0.23,0.542,0.403c0.098,0.111,0.202,0.285,0.313,0.522s0.192,0.454,0.244,0.649
		C111.915,119.748,111.951,120.077,111.951,120.455z M111.541,120.508c0-0.387-0.055-0.748-0.164-1.082s-0.232-0.6-0.369-0.798
		c-0.082-0.114-0.187-0.211-0.317-0.293c-0.186-0.114-0.394-0.171-0.625-0.171c-0.459,0-0.819,0.234-1.079,0.703
		s-0.391,1.016-0.391,1.641v0.903c0,0.387,0.055,0.749,0.164,1.084s0.233,0.602,0.374,0.801c0.078,0.111,0.182,0.207,0.313,0.288
		c0.186,0.117,0.396,0.176,0.63,0.176c0.456,0,0.814-0.235,1.074-0.706s0.391-1.018,0.391-1.643V120.508z"/>
	<path fill="#808080" d="M114.524,119.795v0.747c0.244-0.296,0.506-0.519,0.786-0.669s0.61-0.225,0.991-0.225
		c0.404,0,0.776,0.094,1.118,0.283s0.606,0.452,0.793,0.789s0.281,0.691,0.281,1.062c0,0.589-0.211,1.093-0.632,1.511
		s-0.94,0.627-1.555,0.627c-0.732,0-1.327-0.298-1.782-0.894v2.471h0.996c0.098,0,0.167,0.019,0.21,0.056s0.063,0.087,0.063,0.149
		c0,0.059-0.021,0.107-0.063,0.146s-0.112,0.059-0.21,0.059h-1.958c-0.098,0-0.167-0.019-0.21-0.056s-0.063-0.087-0.063-0.149
		s0.021-0.111,0.063-0.149s0.112-0.056,0.21-0.056h0.552v-5.288h-0.552c-0.098,0-0.167-0.02-0.21-0.059s-0.063-0.089-0.063-0.151
		c0-0.059,0.021-0.107,0.063-0.146s0.112-0.059,0.21-0.059H114.524z M118.079,121.783c0-0.472-0.172-0.876-0.515-1.213
		s-0.763-0.505-1.257-0.505c-0.498,0-0.919,0.169-1.265,0.508s-0.518,0.742-0.518,1.211c0,0.472,0.172,0.877,0.518,1.216
		s0.767,0.508,1.265,0.508c0.492,0,0.91-0.168,1.255-0.505S118.079,122.258,118.079,121.783z"/>
	<path fill="#808080" d="M122.351,121.812l1.88,1.802c0.124,0,0.202,0.006,0.234,0.017s0.061,0.035,0.085,0.071
		s0.037,0.075,0.037,0.117c0,0.059-0.021,0.107-0.063,0.146s-0.114,0.059-0.215,0.059h-1.318c-0.101,0-0.172-0.02-0.215-0.059
		s-0.063-0.088-0.063-0.146c0-0.062,0.021-0.111,0.063-0.149s0.114-0.056,0.215-0.056h0.679l-1.597-1.528l-1.587,1.528h0.684
		c0.098,0,0.167,0.019,0.21,0.056s0.063,0.087,0.063,0.149c0,0.059-0.021,0.107-0.063,0.146s-0.112,0.059-0.21,0.059h-1.333
		c-0.098,0-0.167-0.02-0.21-0.059s-0.063-0.088-0.063-0.146c0-0.042,0.012-0.082,0.037-0.117s0.052-0.06,0.083-0.071
		s0.108-0.017,0.232-0.017l1.88-1.802l-1.67-1.602c-0.117,0-0.191-0.006-0.222-0.02s-0.059-0.038-0.083-0.073
		s-0.037-0.075-0.037-0.117c0-0.059,0.021-0.107,0.063-0.146s0.114-0.059,0.215-0.059h1.118c0.101,0,0.172,0.02,0.212,0.059
		s0.061,0.089,0.061,0.151c0,0.059-0.021,0.107-0.061,0.146s-0.111,0.059-0.212,0.059h-0.488l1.382,1.333l1.392-1.333h-0.488
		c-0.098,0-0.168-0.02-0.212-0.059s-0.066-0.089-0.066-0.151c0-0.059,0.021-0.107,0.063-0.146s0.114-0.059,0.215-0.059h1.118
		c0.098,0,0.167,0.02,0.21,0.059s0.063,0.089,0.063,0.151c0,0.039-0.012,0.077-0.037,0.112s-0.052,0.06-0.083,0.073
		s-0.105,0.02-0.222,0.02L122.351,121.812z"/>
</g>
<g>
	<path fill="#808080" d="M158.78,118.889v4.641h1.125c0.078,0,0.134,0.015,0.168,0.045s0.051,0.07,0.051,0.119
		c0,0.047-0.017,0.086-0.051,0.117s-0.09,0.047-0.168,0.047h-2.578c-0.078,0-0.134-0.016-0.168-0.047s-0.051-0.07-0.051-0.117
		c0-0.049,0.017-0.089,0.051-0.119s0.09-0.045,0.168-0.045h1.125v-4.188l-1.07,0.336c-0.052,0.016-0.09,0.023-0.113,0.023
		c-0.039,0-0.075-0.016-0.107-0.049s-0.049-0.071-0.049-0.115c0-0.039,0.013-0.076,0.039-0.109c0.021-0.021,0.064-0.043,0.129-0.066
		L158.78,118.889z"/>
	<path fill="#808080" d="M162.44,121.783c0.203-0.299,0.412-0.521,0.627-0.664s0.454-0.215,0.717-0.215
		c0.349,0,0.659,0.145,0.93,0.436s0.406,0.649,0.406,1.076c0,0.391-0.124,0.748-0.371,1.072s-0.589,0.486-1.023,0.486
		c-0.284,0-0.549-0.087-0.795-0.262s-0.439-0.443-0.58-0.805c-0.175-0.451-0.262-0.949-0.262-1.496c0-0.412,0.082-0.794,0.246-1.148
		c0.125-0.273,0.292-0.514,0.5-0.721s0.451-0.376,0.729-0.508s0.577-0.197,0.9-0.197c0.219,0,0.401,0.044,0.547,0.133
		c0.063,0.039,0.094,0.091,0.094,0.156c0,0.047-0.015,0.085-0.043,0.115s-0.065,0.045-0.109,0.045c-0.034,0-0.074-0.013-0.121-0.039
		c-0.106-0.052-0.239-0.078-0.398-0.078c-0.508,0-0.971,0.218-1.389,0.654s-0.627,0.955-0.627,1.557
		C162.417,121.467,162.424,121.601,162.44,121.783z M162.514,122.326c0.099,0.474,0.255,0.813,0.467,1.016s0.463,0.305,0.752,0.305
		c0.292,0,0.541-0.114,0.748-0.342s0.311-0.524,0.311-0.889c0-0.341-0.104-0.624-0.313-0.848s-0.444-0.336-0.707-0.336
		c-0.253,0-0.496,0.108-0.73,0.324C162.885,121.7,162.709,121.957,162.514,122.326z"/>
	<path fill="#808080" d="M166.983,120.475v0.598c0.195-0.237,0.405-0.416,0.629-0.535s0.488-0.18,0.793-0.18
		c0.323,0,0.621,0.076,0.895,0.227s0.485,0.361,0.635,0.631s0.225,0.553,0.225,0.85c0,0.471-0.169,0.875-0.506,1.209
		s-0.752,0.502-1.244,0.502c-0.586,0-1.062-0.238-1.426-0.715v1.977h0.797c0.078,0,0.134,0.015,0.168,0.045s0.051,0.07,0.051,0.119
		c0,0.047-0.017,0.086-0.051,0.117s-0.09,0.047-0.168,0.047h-1.566c-0.078,0-0.134-0.015-0.168-0.045s-0.051-0.07-0.051-0.119
		s0.017-0.089,0.051-0.119s0.09-0.045,0.168-0.045h0.441v-4.23h-0.441c-0.078,0-0.134-0.016-0.168-0.047s-0.051-0.072-0.051-0.121
		c0-0.047,0.017-0.086,0.051-0.117s0.09-0.047,0.168-0.047H166.983z M169.827,122.064c0-0.377-0.138-0.701-0.412-0.971
		s-0.61-0.404-1.006-0.404c-0.398,0-0.735,0.135-1.012,0.406s-0.414,0.594-0.414,0.969c0,0.377,0.138,0.702,0.414,0.973
		s0.613,0.406,1.012,0.406c0.394,0,0.728-0.135,1.004-0.404S169.827,122.445,169.827,122.064z"/>
	<path fill="#808080" d="M173.245,122.088l1.504,1.441c0.099,0,0.161,0.004,0.188,0.014s0.049,0.028,0.068,0.057
		s0.029,0.06,0.029,0.094c0,0.047-0.017,0.086-0.051,0.117s-0.091,0.047-0.172,0.047h-1.055c-0.081,0-0.138-0.016-0.172-0.047
		s-0.051-0.07-0.051-0.117c0-0.049,0.017-0.089,0.051-0.119s0.091-0.045,0.172-0.045h0.543l-1.277-1.223l-1.27,1.223h0.547
		c0.078,0,0.134,0.015,0.168,0.045s0.051,0.07,0.051,0.119c0,0.047-0.017,0.086-0.051,0.117s-0.09,0.047-0.168,0.047h-1.066
		c-0.078,0-0.134-0.016-0.168-0.047s-0.051-0.07-0.051-0.117c0-0.034,0.01-0.065,0.029-0.094s0.042-0.047,0.066-0.057
		s0.087-0.014,0.186-0.014l1.504-1.441l-1.336-1.281c-0.094,0-0.153-0.005-0.178-0.016s-0.047-0.03-0.066-0.059
		s-0.029-0.06-0.029-0.094c0-0.047,0.017-0.086,0.051-0.117s0.091-0.047,0.172-0.047h0.895c0.081,0,0.138,0.016,0.17,0.047
		s0.049,0.072,0.049,0.121c0,0.047-0.017,0.086-0.049,0.117s-0.089,0.047-0.17,0.047h-0.391l1.105,1.066l1.113-1.066h-0.391
		c-0.078,0-0.135-0.016-0.17-0.047s-0.053-0.072-0.053-0.121c0-0.047,0.017-0.086,0.051-0.117s0.091-0.047,0.172-0.047h0.895
		c0.078,0,0.134,0.016,0.168,0.047s0.051,0.072,0.051,0.121c0,0.031-0.01,0.061-0.029,0.09s-0.042,0.048-0.066,0.059
		s-0.084,0.016-0.178,0.016L173.245,122.088z"/>
</g>
<g>
	<g>
		<line fill="none" stroke="#CCCCCC" stroke-width="1" stroke-miterlimit="10" x1="162.167" y1="114.5" x2="175.167" y2="114.5"/>
		<g>
			<polygon fill="#CCCCCC" points="164.454,116.5 162.757,114.5 164.454,112.5 163.014,112.5 161.319,114.5 163.014,116.5 			"/>
		</g>
		<g>
			<polygon fill="#CCCCCC" points="173.184,116.5 174.88,114.5 173.184,112.5 174.624,112.5 176.319,114.5 174.624,116.5 			"/>
		</g>
	</g>
</g>
<line fill="none" stroke="#CCCCCC" stroke-miterlimit="10" x1="65.167" y1="69" x2="55.167" y2="69"/>
<line fill="none" stroke="#CCCCCC" stroke-miterlimit="10" x1="65.167" y1="94" x2="55.167" y2="94"/>
<g>
	<g>
		<line fill="none" stroke="#CCCCCC" stroke-miterlimit="10" x1="59.667" y1="70.5" x2="59.667" y2="91.5"/>
		<g>
			<polygon fill="#CCCCCC" points="58.167,72.159 59.667,70.462 61.167,72.159 61.167,70.719 59.667,69.024 58.167,70.719 			"/>
		</g>
		<g>
			<polygon fill="#CCCCCC" points="58.167,89.889 59.667,91.585 61.167,89.889 61.167,91.329 59.667,93.024 58.167,91.329 			"/>
		</g>
	</g>
</g>
<g>
	<path fill="#808080" d="M40.206,82.196h2.52v-0.129c0-0.078,0.016-0.134,0.047-0.168s0.072-0.051,0.121-0.051
		c0.047,0,0.086,0.017,0.117,0.051s0.047,0.09,0.047,0.168v0.457h-3.172V82.04c0.667-0.599,1.315-1.208,1.945-1.828
		c0.294-0.289,0.496-0.501,0.605-0.637s0.184-0.254,0.225-0.357s0.061-0.207,0.061-0.311c0-0.281-0.113-0.53-0.34-0.746
		s-0.5-0.324-0.82-0.324c-0.287,0-0.541,0.082-0.762,0.246s-0.365,0.367-0.43,0.609c-0.016,0.063-0.035,0.103-0.059,0.121
		c-0.031,0.026-0.068,0.039-0.109,0.039c-0.044,0-0.082-0.015-0.111-0.045s-0.045-0.066-0.045-0.107
		c0-0.125,0.068-0.294,0.205-0.508s0.326-0.381,0.566-0.504s0.488-0.184,0.74-0.184c0.409,0,0.76,0.142,1.055,0.426
		s0.441,0.605,0.441,0.965c0,0.151-0.025,0.29-0.074,0.416s-0.133,0.264-0.252,0.414s-0.332,0.375-0.639,0.678
		c-0.771,0.76-1.398,1.35-1.883,1.77V82.196z"/>
	<path fill="#808080" d="M47.03,81.153h-2.176v-0.379l1.824-3.152h0.684v3.203h0.273c0.081,0,0.138,0.015,0.172,0.045
		s0.051,0.07,0.051,0.119c0,0.047-0.017,0.086-0.051,0.117s-0.091,0.047-0.172,0.047h-0.273v1.043h0.273
		c0.081,0,0.138,0.015,0.172,0.045s0.051,0.07,0.051,0.119c0,0.047-0.017,0.086-0.051,0.117s-0.091,0.047-0.172,0.047h-1.219
		c-0.081,0-0.138-0.016-0.172-0.047s-0.051-0.07-0.051-0.117c0-0.049,0.017-0.089,0.051-0.119s0.091-0.045,0.172-0.045h0.613V81.153
		z M47.03,80.825v-2.871h-0.172l-1.66,2.871H47.03z"/>
	<path fill="#808080" d="M49.983,79.141v0.598c0.195-0.237,0.405-0.416,0.629-0.535s0.488-0.18,0.793-0.18
		c0.323,0,0.621,0.076,0.895,0.227s0.485,0.361,0.635,0.631s0.225,0.553,0.225,0.85c0,0.471-0.168,0.875-0.506,1.209
		s-0.752,0.502-1.244,0.502c-0.586,0-1.061-0.238-1.426-0.715v1.977h0.797c0.078,0,0.134,0.015,0.168,0.045s0.051,0.07,0.051,0.119
		c0,0.047-0.017,0.086-0.051,0.117s-0.09,0.047-0.168,0.047h-1.566c-0.078,0-0.134-0.015-0.168-0.045s-0.051-0.07-0.051-0.119
		s0.017-0.089,0.051-0.119s0.09-0.045,0.168-0.045h0.441v-4.23h-0.441c-0.078,0-0.134-0.016-0.168-0.047s-0.051-0.072-0.051-0.121
		c0-0.047,0.017-0.086,0.051-0.117s0.09-0.047,0.168-0.047H49.983z M52.827,80.731c0-0.377-0.137-0.701-0.412-0.971
		s-0.61-0.404-1.006-0.404c-0.398,0-0.736,0.135-1.012,0.406s-0.414,0.594-0.414,0.969c0,0.377,0.138,0.702,0.414,0.973
		s0.613,0.406,1.012,0.406c0.393,0,0.728-0.135,1.004-0.404S52.827,81.111,52.827,80.731z"/>
	<path fill="#808080" d="M56.245,80.754l1.504,1.441c0.099,0,0.162,0.004,0.188,0.014s0.049,0.028,0.068,0.057
		s0.029,0.06,0.029,0.094c0,0.047-0.017,0.086-0.051,0.117s-0.091,0.047-0.172,0.047h-1.055c-0.081,0-0.138-0.016-0.172-0.047
		s-0.051-0.07-0.051-0.117c0-0.049,0.017-0.089,0.051-0.119s0.091-0.045,0.172-0.045h0.543l-1.277-1.223l-1.27,1.223h0.547
		c0.078,0,0.134,0.015,0.168,0.045s0.051,0.07,0.051,0.119c0,0.047-0.017,0.086-0.051,0.117s-0.09,0.047-0.168,0.047h-1.066
		c-0.078,0-0.134-0.016-0.168-0.047s-0.051-0.07-0.051-0.117c0-0.034,0.01-0.065,0.029-0.094s0.042-0.047,0.066-0.057
		s0.086-0.014,0.186-0.014l1.504-1.441l-1.336-1.281c-0.094,0-0.153-0.005-0.178-0.016s-0.047-0.03-0.066-0.059
		s-0.029-0.06-0.029-0.094c0-0.047,0.017-0.086,0.051-0.117s0.091-0.047,0.172-0.047h0.895c0.081,0,0.137,0.016,0.17,0.047
		s0.049,0.072,0.049,0.121c0,0.047-0.016,0.086-0.049,0.117s-0.089,0.047-0.17,0.047h-0.391l1.105,1.066l1.113-1.066h-0.391
		c-0.078,0-0.135-0.016-0.17-0.047s-0.053-0.072-0.053-0.121c0-0.047,0.017-0.086,0.051-0.117s0.091-0.047,0.172-0.047h0.895
		c0.078,0,0.134,0.016,0.168,0.047s0.051,0.072,0.051,0.121c0,0.031-0.01,0.061-0.029,0.09s-0.042,0.048-0.066,0.059
		s-0.084,0.016-0.178,0.016L56.245,80.754z"/>
</g>
<g>
	<path d="M442.209,85.135h3.455v23.04h-3.455V85.135z"/>
	<path d="M472.864,89.615c0.576,0,1.115,0.107,1.617,0.32c0.5,0.214,0.943,0.512,1.327,0.896c0.384,0.384,0.683,0.827,0.896,1.328
		c0.214,0.501,0.32,1.04,0.32,1.616v14.4H473.6v-14.4c0-0.192-0.069-0.357-0.208-0.496c-0.139-0.139-0.315-0.208-0.528-0.208h-7.328
		c-0.191,0-0.357,0.069-0.495,0.208c-0.14,0.139-0.208,0.304-0.208,0.496v14.4h-3.456v-14.4c0-0.192-0.069-0.357-0.208-0.496
		c-0.139-0.139-0.305-0.208-0.496-0.208h-7.359c-0.193,0-0.358,0.069-0.496,0.208c-0.14,0.139-0.209,0.304-0.209,0.496v14.4h-3.455
		v-18.56H472.864z"/>
	<path d="M494.784,89.615c0.576,0,1.115,0.107,1.617,0.32c0.5,0.214,0.943,0.512,1.328,0.896c0.383,0.384,0.682,0.827,0.896,1.328
		c0.213,0.501,0.319,1.04,0.319,1.616v14.4h-14.719c-0.576,0-1.115-0.106-1.617-0.32c-0.501-0.213-0.943-0.512-1.328-0.896
		c-0.383-0.384-0.683-0.827-0.896-1.328c-0.214-0.501-0.319-1.04-0.319-1.616v-6.848h15.424v-3.392c0-0.192-0.07-0.357-0.209-0.496
		c-0.139-0.139-0.303-0.208-0.496-0.208h-14.719v-3.456H494.784z M495.489,100.623H483.52v3.392c0,0.192,0.069,0.357,0.209,0.496
		c0.138,0.139,0.303,0.208,0.496,0.208h11.264V100.623z"/>
	<path d="M520.799,101.103v0.032v10.24c0,0.576-0.106,1.114-0.319,1.616c-0.214,0.501-0.513,0.944-0.896,1.328
		c-0.385,0.384-0.828,0.683-1.328,0.896c-0.502,0.213-1.041,0.32-1.616,0.32h-11.456v-3.456h11.456c0.192,0,0.356-0.069,0.495-0.208
		s0.209-0.304,0.209-0.496v-3.2h-11.264c-0.576,0-1.115-0.106-1.617-0.32c-0.501-0.213-0.943-0.512-1.328-0.896
		c-0.383-0.384-0.682-0.827-0.896-1.328c-0.214-0.501-0.319-1.04-0.319-1.616v-10.24c0-0.576,0.105-1.115,0.319-1.616
		c0.214-0.501,0.513-0.944,0.896-1.328c0.385-0.384,0.827-0.682,1.328-0.896c0.502-0.213,1.041-0.32,1.617-0.32h10.56
		c0.575,0,1.114,0.107,1.616,0.32c0.5,0.214,0.943,0.512,1.328,0.896c0.383,0.384,0.682,0.827,0.896,1.328
		c0.213,0.501,0.319,1.04,0.319,1.616V101.103z M516.64,104.719c0.192,0,0.356-0.069,0.495-0.208
		c0.139-0.139,0.209-0.304,0.209-0.496v-10.24c0-0.192-0.07-0.357-0.209-0.496c-0.139-0.139-0.303-0.208-0.495-0.208h-10.56
		c-0.193,0-0.358,0.069-0.496,0.208c-0.14,0.139-0.209,0.304-0.209,0.496v10.24c0,0.192,0.069,0.357,0.209,0.496
		c0.138,0.139,0.303,0.208,0.496,0.208H516.64z"/>
	<path d="M527.584,83.535v3.456h-3.457v-3.456H527.584z M524.127,89.615h3.457v18.56h-3.457V89.615z"/>
	<path d="M545.088,89.615c0.575,0,1.113,0.107,1.615,0.32c0.501,0.214,0.943,0.512,1.328,0.896c0.384,0.384,0.683,0.827,0.896,1.328
		c0.213,0.501,0.319,1.04,0.319,1.616v14.4h-3.456v-14.4c0-0.192-0.069-0.357-0.208-0.496c-0.139-0.139-0.304-0.208-0.495-0.208
		h-10.561c-0.192,0-0.357,0.069-0.496,0.208c-0.139,0.139-0.208,0.304-0.208,0.496v14.4h-3.456v-18.56H545.088z"/>
	<path d="M571.104,101.103v0.032v10.24c0,0.576-0.107,1.114-0.32,1.616c-0.213,0.501-0.512,0.944-0.896,1.328
		c-0.384,0.384-0.826,0.683-1.328,0.896c-0.501,0.213-1.039,0.32-1.615,0.32h-11.456v-3.456h11.456c0.191,0,0.357-0.069,0.496-0.208
		s0.207-0.304,0.207-0.496v-3.2h-11.264c-0.576,0-1.115-0.106-1.615-0.32c-0.502-0.213-0.944-0.512-1.328-0.896
		c-0.385-0.384-0.684-0.827-0.896-1.328c-0.213-0.501-0.32-1.04-0.32-1.616v-10.24c0-0.576,0.107-1.115,0.32-1.616
		c0.213-0.501,0.512-0.944,0.896-1.328c0.384-0.384,0.826-0.682,1.328-0.896c0.5-0.213,1.039-0.32,1.615-0.32h10.561
		c0.576,0,1.114,0.107,1.615,0.32c0.502,0.214,0.944,0.512,1.328,0.896c0.385,0.384,0.684,0.827,0.896,1.328
		c0.213,0.501,0.32,1.04,0.32,1.616V101.103z M566.944,104.719c0.191,0,0.357-0.069,0.496-0.208
		c0.139-0.139,0.207-0.304,0.207-0.496v-10.24c0-0.192-0.068-0.357-0.207-0.496c-0.139-0.139-0.305-0.208-0.496-0.208h-10.561
		c-0.191,0-0.357,0.069-0.496,0.208c-0.139,0.139-0.207,0.304-0.207,0.496v10.24c0,0.192,0.068,0.357,0.207,0.496
		c0.139,0.139,0.305,0.208,0.496,0.208H566.944z"/>
	<path d="M602.784,85.135c0.576,0,1.114,0.107,1.615,0.32c0.502,0.214,0.944,0.512,1.328,0.896c0.385,0.384,0.683,0.827,0.896,1.328
		c0.213,0.501,0.32,1.04,0.32,1.616v18.88h-3.457v-8.064H587.36v8.064h-3.457v-18.88c0-0.576,0.107-1.115,0.32-1.616
		c0.213-0.501,0.512-0.944,0.896-1.328c0.384-0.384,0.826-0.682,1.328-0.896c0.5-0.213,1.039-0.32,1.615-0.32H602.784z
		 M603.487,96.655v-7.36c0-0.192-0.068-0.357-0.207-0.496c-0.14-0.139-0.305-0.208-0.496-0.208h-14.721
		c-0.191,0-0.357,0.069-0.496,0.208c-0.139,0.139-0.207,0.304-0.207,0.496v7.36H603.487z"/>
	<path d="M624.991,89.615v3.456h-10.367c-0.192,0-0.357,0.069-0.496,0.208c-0.139,0.139-0.208,0.304-0.208,0.496v14.4h-3.456v-4.16
		v-10.24c0-0.576,0.106-1.115,0.32-1.616c0.213-0.501,0.512-0.944,0.896-1.328c0.384-0.384,0.827-0.682,1.328-0.896
		c0.501-0.213,1.04-0.32,1.616-0.32H624.991z"/>
	<path d="M645.696,104.719v3.456h-14.721c-0.576,0-1.115-0.106-1.616-0.32s-0.944-0.512-1.327-0.896
		c-0.385-0.384-0.684-0.827-0.896-1.328c-0.214-0.501-0.32-1.04-0.32-1.616v-10.24c0-0.576,0.106-1.115,0.32-1.616
		c0.213-0.501,0.512-0.944,0.896-1.328c0.383-0.384,0.826-0.682,1.327-0.896c0.501-0.213,1.04-0.32,1.616-0.32h14.656v3.456h-14.656
		c-0.191,0-0.357,0.069-0.496,0.208c-0.139,0.139-0.208,0.304-0.208,0.496v10.24c0,0.192,0.069,0.357,0.208,0.496
		c0.139,0.139,0.305,0.208,0.496,0.208H645.696z"/>
	<path d="M663.391,89.615c0.576,0,1.114,0.107,1.615,0.32c0.502,0.214,0.939,0.512,1.313,0.896c0.373,0.384,0.672,0.827,0.896,1.328
		c0.224,0.501,0.336,1.04,0.336,1.616v14.4h-3.457v-14.4c0-0.192-0.068-0.357-0.207-0.496c-0.139-0.139-0.305-0.208-0.496-0.208
		h-10.561c-0.191,0-0.357,0.069-0.496,0.208c-0.139,0.139-0.207,0.304-0.207,0.496v14.4h-3.457v-24.64h3.457v6.08H663.391z"/>
	<path d="M673.439,83.535v3.456h-3.456v-3.456H673.439z M669.983,89.615h3.456v18.56h-3.456V89.615z"/>
	<path d="M699.583,89.615l-10.24,18.56h-3.455l-10.24-18.56h4l7.968,14.656l8-14.656H699.583z"/>
	<path d="M714.59,89.615c0.576,0,1.115,0.107,1.616,0.32c0.501,0.214,0.944,0.512,1.328,0.896c0.384,0.384,0.683,0.827,0.896,1.328
		c0.213,0.501,0.32,1.04,0.32,1.616v6.848h-15.424v3.392c0,0.192,0.069,0.357,0.208,0.496c0.139,0.139,0.304,0.208,0.496,0.208
		h14.72v3.456h-14.72c-0.576,0-1.115-0.106-1.616-0.32c-0.502-0.213-0.943-0.512-1.328-0.896c-0.384-0.384-0.683-0.827-0.896-1.328
		c-0.214-0.501-0.32-1.04-0.32-1.616v-10.24c0-0.576,0.106-1.115,0.32-1.616c0.213-0.501,0.512-0.944,0.896-1.328
		c0.385-0.384,0.826-0.682,1.328-0.896c0.501-0.213,1.04-0.32,1.616-0.32H714.59z M715.295,97.167v-3.392
		c0-0.192-0.07-0.357-0.209-0.496c-0.139-0.139-0.304-0.208-0.496-0.208h-10.56c-0.192,0-0.357,0.069-0.496,0.208
		c-0.139,0.139-0.208,0.304-0.208,0.496v3.392H715.295z"/>
	<path d="M751.038,85.135h3.457v23.04h-4.097l-15.487-18.432v18.432h-3.457v-23.04h4.097l15.487,18.432V85.135z"/>
	<path d="M772.637,89.615c0.576,0,1.115,0.107,1.616,0.32c0.501,0.214,0.944,0.512,1.328,0.896c0.384,0.384,0.683,0.827,0.896,1.328
		c0.213,0.501,0.32,1.04,0.32,1.616v6.848h-15.424v3.392c0,0.192,0.069,0.357,0.208,0.496c0.139,0.139,0.304,0.208,0.496,0.208
		h14.72v3.456h-14.72c-0.576,0-1.115-0.106-1.616-0.32c-0.502-0.213-0.943-0.512-1.328-0.896c-0.384-0.384-0.683-0.827-0.896-1.328
		c-0.214-0.501-0.32-1.04-0.32-1.616v-10.24c0-0.576,0.106-1.115,0.32-1.616c0.213-0.501,0.512-0.944,0.896-1.328
		c0.385-0.384,0.826-0.682,1.328-0.896c0.501-0.213,1.04-0.32,1.616-0.32H772.637z M773.342,97.167v-3.392
		c0-0.192-0.07-0.357-0.209-0.496c-0.139-0.139-0.304-0.208-0.496-0.208h-10.56c-0.192,0-0.357,0.069-0.496,0.208
		c-0.139,0.139-0.208,0.304-0.208,0.496v3.392H773.342z"/>
	<path d="M783.582,93.071v10.944c0,0.192,0.068,0.357,0.208,0.496c0.138,0.139,0.304,0.208,0.496,0.208h6.911v3.456h-6.911
		c-0.576,0-1.115-0.106-1.616-0.32c-0.502-0.213-0.944-0.512-1.328-0.896c-0.384-0.384-0.684-0.827-0.896-1.328
		c-0.213-0.501-0.319-1.04-0.319-1.616v-10.24v-10.24h3.456v6.08h7.615v3.456H783.582z"/>
	<path d="M824.958,89.615l-6.977,18.56h-2.815l-6.24-13.792l-5.888,13.792l-0.064-0.032l0.032,0.032h-2.784l-7.296-18.56h3.68
		l5.024,12.32l5.344-12.32h3.936l5.664,12.32l4.704-12.32H824.958z"/>
	<path d="M840.957,89.615c0.576,0,1.115,0.107,1.616,0.32c0.501,0.214,0.944,0.512,1.328,0.896c0.384,0.384,0.683,0.827,0.896,1.328
		c0.213,0.501,0.319,1.04,0.319,1.616v10.24c0,0.576-0.106,1.115-0.319,1.616c-0.214,0.501-0.513,0.944-0.896,1.328
		c-0.384,0.384-0.827,0.683-1.328,0.896s-1.04,0.32-1.616,0.32h-10.56c-0.576,0-1.115-0.106-1.616-0.32s-0.943-0.512-1.328-0.896
		c-0.384-0.384-0.683-0.827-0.896-1.328c-0.214-0.501-0.32-1.04-0.32-1.616v-10.24c0-0.576,0.106-1.115,0.32-1.616
		c0.213-0.501,0.512-0.944,0.896-1.328c0.385-0.384,0.827-0.682,1.328-0.896c0.501-0.213,1.04-0.32,1.616-0.32H840.957z
		 M830.397,93.071c-0.192,0-0.357,0.069-0.496,0.208c-0.139,0.139-0.208,0.304-0.208,0.496v10.24c0,0.192,0.069,0.357,0.208,0.496
		c0.139,0.139,0.304,0.208,0.496,0.208h10.56c0.192,0,0.357-0.069,0.496-0.208c0.139-0.139,0.208-0.304,0.208-0.496v-10.24
		c0-0.192-0.069-0.357-0.208-0.496c-0.139-0.139-0.304-0.208-0.496-0.208H830.397z"/>
	<path d="M862.301,89.615v3.456h-10.368c-0.192,0-0.357,0.069-0.496,0.208c-0.139,0.139-0.208,0.304-0.208,0.496v14.4h-3.456v-4.16
		v-10.24c0-0.576,0.106-1.115,0.32-1.616c0.213-0.501,0.512-0.944,0.896-1.328c0.384-0.384,0.826-0.682,1.328-0.896
		c0.501-0.213,1.04-0.32,1.616-0.32H862.301z"/>
	<path d="M882.876,89.615v0.48l-7.968,8.8l7.968,8.8v0.48h-4.096l-6.944-7.552h-4.16v7.552h-3.456v-24.64h3.456v13.632h4.16
		l6.944-7.552H882.876z"/>
</g>
<g>
	<path d="M574.369,76.361v1.968h-11.28c-0.4,0-0.776-0.076-1.128-0.228c-0.353-0.152-0.66-0.36-0.924-0.624
		c-0.265-0.264-0.472-0.572-0.624-0.924s-0.229-0.728-0.229-1.128v-8.112c0-0.399,0.076-0.776,0.229-1.128
		c0.152-0.352,0.359-0.66,0.624-0.924c0.264-0.264,0.571-0.472,0.924-0.624c0.352-0.152,0.728-0.228,1.128-0.228h11.232v1.968
		h-11.232c-0.256,0-0.477,0.092-0.66,0.276s-0.275,0.404-0.275,0.66v8.112c0,0.256,0.092,0.476,0.275,0.66
		c0.184,0.184,0.404,0.276,0.66,0.276H574.369z"/>
	<path d="M588.12,64.409c0.4,0,0.78,0.076,1.141,0.228c0.359,0.152,0.672,0.36,0.936,0.624c0.264,0.264,0.473,0.572,0.625,0.924
		c0.151,0.352,0.228,0.729,0.228,1.128v8.112c0,0.4-0.076,0.776-0.228,1.128c-0.152,0.352-0.361,0.66-0.625,0.924
		s-0.576,0.472-0.936,0.624c-0.36,0.152-0.74,0.228-1.141,0.228h-8.352c-0.4,0-0.776-0.076-1.128-0.228
		c-0.353-0.152-0.66-0.36-0.924-0.624c-0.265-0.264-0.472-0.572-0.624-0.924s-0.229-0.728-0.229-1.128v-8.112
		c0-0.399,0.076-0.776,0.229-1.128c0.152-0.352,0.359-0.66,0.624-0.924c0.264-0.264,0.571-0.472,0.924-0.624
		c0.352-0.152,0.728-0.228,1.128-0.228H588.12z M579.768,66.376c-0.256,0-0.477,0.092-0.66,0.276s-0.275,0.404-0.275,0.66v8.112
		c0,0.256,0.092,0.476,0.275,0.66c0.184,0.184,0.404,0.276,0.66,0.276h8.352c0.272,0,0.496-0.092,0.672-0.276
		c0.176-0.184,0.265-0.404,0.265-0.66v-8.112c0-0.256-0.089-0.476-0.265-0.66s-0.399-0.276-0.672-0.276H579.768z"/>
	<path d="M606.984,59.849v18.48h-11.256c-0.416,0-0.8-0.076-1.151-0.228c-0.353-0.152-0.66-0.36-0.925-0.624
		c-0.264-0.264-0.472-0.572-0.624-0.924s-0.229-0.728-0.229-1.128v-8.112c0-0.399,0.076-0.776,0.229-1.128
		c0.152-0.352,0.36-0.66,0.624-0.924c0.265-0.264,0.572-0.472,0.925-0.624c0.352-0.152,0.735-0.228,1.151-0.228h9.288v-4.56H606.984
		z M604.081,76.361c0.256,0,0.476-0.092,0.66-0.276c0.184-0.184,0.275-0.404,0.275-0.66v-8.112c0-0.256-0.092-0.476-0.275-0.66
		c-0.185-0.184-0.404-0.276-0.66-0.276h-8.353c-0.257,0-0.476,0.092-0.66,0.276s-0.276,0.404-0.276,0.66v8.112
		c0,0.256,0.092,0.476,0.276,0.66c0.185,0.184,0.403,0.276,0.66,0.276H604.081z"/>
	<path d="M620.256,64.409c0.399,0,0.779,0.076,1.14,0.228c0.36,0.152,0.672,0.36,0.937,0.624c0.264,0.264,0.471,0.572,0.623,0.924
		c0.152,0.352,0.229,0.729,0.229,1.128v5.04h-12.217v3.072c0,0.256,0.092,0.476,0.276,0.66c0.185,0.184,0.404,0.276,0.66,0.276
		h11.28v1.968h-11.28c-0.399,0-0.776-0.076-1.128-0.228c-0.352-0.152-0.66-0.36-0.924-0.624s-0.473-0.572-0.624-0.924
		c-0.152-0.352-0.228-0.728-0.228-1.128v-8.112c0-0.399,0.075-0.776,0.228-1.128c0.151-0.352,0.36-0.66,0.624-0.924
		c0.264-0.264,0.572-0.472,0.924-0.624c0.352-0.152,0.729-0.228,1.128-0.228H620.256z M621.192,70.385v-3.072
		c0-0.256-0.088-0.476-0.264-0.66c-0.177-0.184-0.4-0.276-0.672-0.276h-8.353c-0.256,0-0.476,0.092-0.66,0.276
		s-0.276,0.404-0.276,0.66v3.072H621.192z"/>
	<path d="M636.959,64.409c0.4,0,0.776,0.076,1.129,0.228c0.352,0.152,0.659,0.36,0.924,0.624c0.264,0.264,0.471,0.572,0.623,0.924
		c0.152,0.352,0.229,0.729,0.229,1.128v11.016h-1.968V67.313c0-0.256-0.093-0.476-0.276-0.66s-0.404-0.276-0.66-0.276h-8.352
		c-0.272,0-0.5,0.092-0.684,0.276c-0.185,0.184-0.276,0.404-0.276,0.66v11.016h-1.968v-13.92H636.959z"/>
	<path d="M653.591,64.409c0.399,0,0.78,0.076,1.14,0.228c0.36,0.152,0.672,0.36,0.937,0.624c0.265,0.264,0.472,0.572,0.624,0.924
		c0.152,0.352,0.229,0.729,0.229,1.128v11.016h-11.281c-0.399,0-0.775-0.076-1.127-0.228c-0.353-0.152-0.66-0.36-0.924-0.624
		c-0.265-0.264-0.473-0.572-0.625-0.924s-0.228-0.728-0.228-1.128v-5.04h12.192v-3.072c0-0.256-0.088-0.476-0.265-0.66
		s-0.399-0.276-0.672-0.276h-11.256v-1.968H653.591z M654.528,72.353h-10.225v3.072c0,0.256,0.092,0.476,0.276,0.66
		c0.184,0.184,0.403,0.276,0.659,0.276h9.289V72.353z"/>
	<path d="M676.944,64.409c0.399,0,0.779,0.076,1.14,0.228c0.36,0.152,0.668,0.36,0.925,0.624c0.255,0.264,0.459,0.572,0.611,0.924
		c0.152,0.352,0.229,0.729,0.229,1.128v11.016h-1.944V67.313c0-0.256-0.093-0.476-0.276-0.66s-0.412-0.276-0.684-0.276h-5.784
		c-0.272,0-0.496,0.092-0.672,0.276c-0.177,0.184-0.265,0.404-0.265,0.66v11.016h-1.992V67.313c0-0.256-0.092-0.476-0.275-0.66
		s-0.404-0.276-0.66-0.276h-5.808c-0.257,0-0.477,0.092-0.66,0.276c-0.185,0.184-0.276,0.404-0.276,0.66v11.016h-1.992v-13.92
		H676.944z"/>
	<path d="M693.215,64.409c0.4,0,0.779,0.076,1.141,0.228c0.359,0.152,0.672,0.36,0.936,0.624c0.264,0.264,0.472,0.572,0.624,0.924
		c0.151,0.352,0.228,0.729,0.228,1.128v5.04h-12.216v3.072c0,0.256,0.092,0.476,0.276,0.66c0.184,0.184,0.404,0.276,0.66,0.276
		h11.279v1.968h-11.279c-0.4,0-0.777-0.076-1.129-0.228c-0.352-0.152-0.66-0.36-0.924-0.624s-0.472-0.572-0.623-0.924
		c-0.152-0.352-0.229-0.728-0.229-1.128v-8.112c0-0.399,0.076-0.776,0.229-1.128c0.151-0.352,0.359-0.66,0.623-0.924
		c0.264-0.264,0.572-0.472,0.924-0.624c0.352-0.152,0.729-0.228,1.129-0.228H693.215z M694.151,70.385v-3.072
		c0-0.256-0.088-0.476-0.264-0.66s-0.4-0.276-0.672-0.276h-8.352c-0.256,0-0.477,0.092-0.66,0.276
		c-0.185,0.184-0.276,0.404-0.276,0.66v3.072H694.151z"/>
	<path d="M728.542,60.024h-2.592v-0.896c0-0.341-0.123-0.634-0.368-0.88c-0.246-0.245-0.539-0.368-0.88-0.368h-15.36
		c-0.342,0-0.635,0.123-0.88,0.368c-0.245,0.246-0.368,0.539-0.368,0.88v5.152c0,0.341,0.123,0.629,0.368,0.864
		c0.245,0.235,0.538,0.352,0.88,0.352h15.36c0.533,0,1.034,0.102,1.504,0.304s0.874,0.48,1.216,0.832
		c0.342,0.352,0.613,0.757,0.816,1.216c0.202,0.459,0.304,0.955,0.304,1.488v5.152c0,0.533-0.102,1.035-0.304,1.504
		c-0.203,0.469-0.475,0.875-0.816,1.216c-0.342,0.342-0.746,0.614-1.216,0.816c-0.47,0.203-0.971,0.304-1.504,0.304h-15.36
		c-0.533,0-1.035-0.101-1.504-0.304c-0.469-0.202-0.875-0.474-1.216-0.816c-0.341-0.341-0.613-0.747-0.815-1.216
		c-0.203-0.469-0.305-0.971-0.305-1.504v-0.896h2.592v0.896c0,0.341,0.123,0.635,0.368,0.88c0.245,0.246,0.538,0.368,0.88,0.368
		h15.36c0.341,0,0.634-0.123,0.88-0.368c0.245-0.245,0.368-0.539,0.368-0.88v-5.152c0-0.341-0.123-0.629-0.368-0.864
		c-0.246-0.234-0.539-0.352-0.88-0.352h-15.36c-0.533,0-1.035-0.101-1.504-0.304c-0.469-0.202-0.875-0.48-1.216-0.832
		c-0.341-0.352-0.613-0.757-0.815-1.216c-0.203-0.458-0.305-0.955-0.305-1.488v-5.152c0-0.533,0.102-1.034,0.305-1.504
		c0.202-0.469,0.475-0.875,0.815-1.216s0.747-0.613,1.216-0.816s0.971-0.304,1.504-0.304h15.36c0.533,0,1.034,0.102,1.504,0.304
		s0.874,0.475,1.216,0.816s0.613,0.747,0.816,1.216c0.202,0.47,0.304,0.971,0.304,1.504V60.024z"/>
	<path d="M734.495,62.393v12.064c0,0.342,0.122,0.635,0.367,0.88c0.246,0.246,0.539,0.368,0.881,0.368h6.783v2.624h-6.783
		c-0.555,0-1.067-0.101-1.536-0.304c-0.47-0.202-0.875-0.48-1.216-0.832c-0.342-0.352-0.613-0.762-0.816-1.232
		c-0.203-0.469-0.305-0.97-0.305-1.504V53.688h2.625v6.08h8.031v2.624H734.495z"/>
	<path d="M759.966,59.769c0.533,0,1.04,0.102,1.521,0.304c0.479,0.203,0.896,0.48,1.248,0.832c0.352,0.352,0.629,0.763,0.832,1.232
		c0.202,0.469,0.304,0.971,0.304,1.504v14.688h-15.04c-0.533,0-1.035-0.101-1.504-0.304c-0.47-0.202-0.881-0.48-1.232-0.832
		c-0.352-0.352-0.629-0.762-0.832-1.232c-0.203-0.469-0.304-0.97-0.304-1.504v-6.72h16.256v-4.096c0-0.341-0.117-0.634-0.353-0.88
		c-0.234-0.245-0.533-0.368-0.896-0.368h-15.008v-2.624H759.966z M761.214,70.361h-13.632v4.096c0,0.342,0.123,0.635,0.367,0.88
		c0.246,0.246,0.539,0.368,0.881,0.368h12.384V70.361z"/>
	<path d="M781.31,59.769v2.624h-10.432c-0.342,0-0.636,0.123-0.88,0.368c-0.246,0.246-0.368,0.539-0.368,0.88v14.688h-2.624V63.641
		c0-0.533,0.102-1.035,0.304-1.504s0.48-0.88,0.832-1.232c0.353-0.352,0.763-0.629,1.232-0.832c0.469-0.203,0.97-0.304,1.504-0.304
		H781.31z"/>
	<path d="M811.485,55.289c0.533,0,1.035,0.102,1.504,0.304c0.47,0.203,0.875,0.475,1.217,0.816c0.341,0.341,0.612,0.747,0.815,1.216
		c0.203,0.47,0.305,0.971,0.305,1.504v19.2h-2.593v-8.416h-17.855v8.416h-2.592v-19.2c0-0.533,0.101-1.034,0.304-1.504
		c0.202-0.469,0.475-0.875,0.815-1.216c0.342-0.341,0.747-0.613,1.217-0.816c0.469-0.203,0.97-0.304,1.504-0.304H811.485z
		 M812.733,67.321v-8.192c0-0.341-0.123-0.634-0.368-0.88c-0.245-0.245-0.538-0.368-0.88-0.368h-15.359
		c-0.342,0-0.636,0.123-0.88,0.368c-0.246,0.246-0.368,0.539-0.368,0.88v8.192H812.733z"/>
	<path d="M821.501,62.393v12.064c0,0.342,0.122,0.635,0.368,0.88c0.244,0.246,0.538,0.368,0.88,0.368h6.783v2.624h-6.783
		c-0.556,0-1.067-0.101-1.536-0.304c-0.47-0.202-0.875-0.48-1.216-0.832c-0.342-0.352-0.614-0.762-0.816-1.232
		c-0.203-0.469-0.304-0.97-0.304-1.504V53.688h2.624v6.08h8.031v2.624H821.501z"/>
	<path d="M834.589,53.688v20.768c0,0.342,0.122,0.635,0.368,0.88c0.245,0.246,0.538,0.368,0.88,0.368h3.136v2.624h-3.136
		c-0.533,0-1.035-0.101-1.504-0.304c-0.47-0.202-0.88-0.48-1.232-0.832c-0.352-0.352-0.629-0.762-0.832-1.232
		c-0.203-0.469-0.304-0.97-0.304-1.504V53.688H834.589z"/>
	<path d="M856.317,59.769c0.533,0,1.04,0.102,1.521,0.304c0.479,0.203,0.896,0.48,1.248,0.832c0.352,0.352,0.629,0.763,0.832,1.232
		c0.202,0.469,0.304,0.971,0.304,1.504v14.688h-15.04c-0.533,0-1.035-0.101-1.504-0.304c-0.47-0.202-0.88-0.48-1.232-0.832
		c-0.352-0.352-0.629-0.762-0.832-1.232c-0.203-0.469-0.304-0.97-0.304-1.504v-6.72h16.256v-4.096c0-0.341-0.117-0.634-0.352-0.88
		c-0.235-0.245-0.534-0.368-0.896-0.368h-15.008v-2.624H856.317z M857.565,70.361h-13.632v4.096c0,0.342,0.122,0.635,0.368,0.88
		c0.245,0.246,0.538,0.368,0.88,0.368h12.384V70.361z"/>
	<path d="M881.661,63.896h-2.656v-0.256c0-0.341-0.123-0.634-0.368-0.88c-0.245-0.245-0.539-0.368-0.88-0.368h-11.136
		c-0.342,0-0.635,0.123-0.88,0.368c-0.246,0.246-0.368,0.539-0.368,0.88v2.848c0,0.341,0.122,0.635,0.368,0.88
		c0.245,0.246,0.538,0.368,0.88,0.368h11.136c0.533,0,1.04,0.101,1.521,0.304c0.479,0.203,0.896,0.48,1.247,0.832
		c0.353,0.352,0.63,0.763,0.832,1.232c0.203,0.47,0.305,0.971,0.305,1.504v2.848c0,0.534-0.102,1.035-0.305,1.504
		c-0.202,0.47-0.479,0.88-0.832,1.232c-0.352,0.352-0.768,0.63-1.247,0.832c-0.48,0.203-0.987,0.304-1.521,0.304h-11.136
		c-0.534,0-1.035-0.101-1.504-0.304c-0.47-0.202-0.88-0.48-1.232-0.832c-0.352-0.352-0.629-0.762-0.832-1.232
		c-0.203-0.469-0.304-0.97-0.304-1.504v-0.256h2.624v0.256c0,0.342,0.122,0.635,0.368,0.88c0.245,0.246,0.538,0.368,0.88,0.368
		h11.136c0.341,0,0.635-0.123,0.88-0.368c0.245-0.245,0.368-0.538,0.368-0.88v-2.848c0-0.341-0.123-0.634-0.368-0.88
		c-0.245-0.245-0.539-0.368-0.88-0.368h-11.136c-0.534,0-1.035-0.101-1.504-0.304c-0.47-0.203-0.88-0.48-1.232-0.832
		c-0.352-0.352-0.629-0.763-0.832-1.232s-0.304-0.971-0.304-1.504v-2.848c0-0.533,0.101-1.035,0.304-1.504s0.48-0.88,0.832-1.232
		c0.353-0.352,0.763-0.629,1.232-0.832c0.469-0.203,0.97-0.304,1.504-0.304h11.136c0.533,0,1.04,0.102,1.521,0.304
		c0.479,0.203,0.896,0.48,1.247,0.832c0.353,0.352,0.63,0.763,0.832,1.232c0.203,0.469,0.305,0.971,0.305,1.504V63.896z"/>
</g>
</svg>
